<?xml version="1.0" encoding="UTF-8" standalone="no"?>
<svg
   xmlns:dc="http://purl.org/dc/elements/1.1/"
   xmlns:cc="http://creativecommons.org/ns#"
   xmlns:rdf="http://www.w3.org/1999/02/22-rdf-syntax-ns#"
   xmlns:svg="http://www.w3.org/2000/svg"
   xmlns="http://www.w3.org/2000/svg"
   xmlns:sodipodi="http://sodipodi.sourceforge.net/DTD/sodipodi-0.dtd"
   xmlns:inkscape="http://www.inkscape.org/namespaces/inkscape"
   height="58.207222"
   width="100"
   viewBox="0 0 105.00582 61.117583"
   id="svg2"
   version="1.1"
   inkscape:version="0.48.5 r10040"
   sodipodi:docname="ligne67.svg">
  <metadata
     id="metadata12">
    <rdf:RDF>
      <cc:Work
         rdf:about="">
        <dc:format>image/svg+xml</dc:format>
        <dc:type
           rdf:resource="http://purl.org/dc/dcmitype/StillImage" />
      </cc:Work>
    </rdf:RDF>
  </metadata>
  <defs
     id="defs10" />
  <sodipodi:namedview
     pagecolor="#ffffff"
     bordercolor="#666666"
     borderopacity="1"
     objecttolerance="10"
     gridtolerance="10"
     guidetolerance="10"
     inkscape:pageopacity="0"
     inkscape:pageshadow="2"
     inkscape:window-width="1366"
     inkscape:window-height="668"
     id="namedview8"
     showgrid="false"
     fit-margin-top="0"
     fit-margin-left="0"
     fit-margin-right="0"
     fit-margin-bottom="0"
     inkscape:zoom="0.23457509"
     inkscape:cx="859"
     inkscape:cy="452.35588"
     inkscape:window-x="0"
     inkscape:window-y="28"
     inkscape:window-maximized="1"
     inkscape:current-layer="svg2" />
  <path
     d="M 0,-0.02910361 H 105.00582 V 61.091866 H 0 z"
     id="path4"
     inkscape:connector-curvature="0"
     style="fill:#ea7c9a" />
  <path
     d="m 36.244855,53.512866 c -11.612983,0 -15.769209,-8.12909 -15.769209,-19.55871 0,-14.97464 6.906669,-25.2429596 20.475524,-25.2429596 2.444839,0 4.645193,0.30561 6.417701,0.73345 L 46.02421,16.779166 c -1.161298,-0.48897 -3.361653,-1.03906 -5.806492,-1.03906 -5.928733,0 -10.390564,4.33959 -10.940653,13.01877 1.466903,-1.28354 4.217347,-2.93381 8.801419,-2.93381 7.028912,0 12.774283,4.70632 12.774283,12.77428 0,8.61806 -5.745371,14.91352 -14.607912,14.91352 z m -0.794572,-20.90337 c -2.628202,0 -4.767435,1.03906 -5.623129,2.38372 -0.488968,0.73345 -0.488968,2.38371 -0.488968,3.66726 0,4.0951 2.322597,8.06796 6.601065,8.06796 4.156225,0 6.295459,-3.48389 6.295459,-7.21227 0,-4.03399 -2.628201,-6.90667 -6.784427,-6.90667 z m 34.105377,19.92543 h -9.840476 c 0,-5.68425 1.528025,-9.3515 5.317525,-16.38041 L 75.545515,16.595806 H 54.581023 V 9.3835264 h 30.193758 v 7.0289096 c -9.47375,16.44154 -15.219121,29.33807 -15.219121,36.12249 z"
     id="path6"
     inkscape:connector-curvature="0" />
</svg>
